<?xml version="1.0" encoding="UTF-8"?>
<svg xmlns="http://www.w3.org/2000/svg" version="1.1" viewBox="0 0 192.49 71.34">
  <!-- Generator: Adobe Illustrator 29.8.2, SVG Export Plug-In . SVG Version: 2.1.1 Build 3)  -->
  <defs>
    <style>
      .st0 {
        fill: #306887;
      }

      .st1 {
        fill: none;
      }
    </style>
  </defs>
  <g id="BoundingBox">
    <rect class="st1" x="-14.17" y="-14.17" width="219.68" height="99.21"/>
  </g>
  <g id="Zusatz_1__x28_Bold_x29_">
    <path class="st0" d="M24.73,70.87l-2.51-7.1h-12.07l-2.55,7.1H1.4l10.79-28.34h8.24l10.84,28.34h-6.54ZM16.23,46.52l-4.8,12.96h9.48l-4.67-12.96ZM53.12,70.87l-10.84-13.51v13.51h-6.29v-28.34h6.29v12.24l10.24-12.24h7.44l-11.94,13.26,12.96,15.09h-7.86ZM77.89,47.54v23.33h-6.33v-23.33h-8.88v-5.02h24.1v5.02h-8.88ZM103.6,71.34c-6.93,0-11.9-3.57-11.9-10.88v-17.93h6.29v17.72c0,3.65,1.66,6.5,5.65,6.5s5.78-2.8,5.78-6.46v-17.76h6.29v17.68c0,7.31-5.23,11.13-12.11,11.13ZM123.28,70.87v-28.34h18.49v4.33h-12.32v7.44h11.77v4.29h-11.77v7.95h12.71v4.33h-18.87ZM148.7,70.87v-28.34h6.29v23.33h12.2v5.01h-18.49ZM172.75,70.87v-28.34h6.29v23.33h12.2v5.01h-18.49Z"/>
  </g>
  <g id="Logo">
    <path class="st0" d="M23.53,15.31c.86-1,3.67-3.78,8.42-3.78,2.63,0,4.8,1.29,5.99,3.4.62,1.1.96,2.35.96,4.12v4.45h-4.59v-4.18c0-.92-.09-1.44-.26-1.89-.44-1.18-1.43-1.69-2.82-1.69-2.1,0-3.88,1.48-5.36,2.87-1.49,1.39-3.62,3.61-4.67,4.8-.11.12-.23.17-.37.13-.13-.04-.18-.15-.18-.35v-4.09c0-2.29-1.21-3.36-3.18-3.36-2.35,0-4.27,1.85-6.57,4.1-1.79,1.76-3.44,3.52-5.75,5.94-.11.12-.23.17-.37.13-.13-.04-.18-.14-.18-.35v-8.66c0-.91-.44-1.52-1.52-1.52H0v-3.45h7.25c1.22,0,1.93.69,1.93,1.92v1.99s4.06-4.29,8.53-4.29c3.8,0,5.31,2.3,5.82,3.78ZM53.45,11.53c-7.57,0-11.09,6.53-11.09,10.68,0,3.02.79,4.78,1.62,6.13h5.13c-.92-1.36-2.15-3.35-2.15-6.13,0-3.38,2.7-6.47,6.47-6.47,2.89,0,4.95,1.91,6.14,2.85,1.73,1.36,4.48,3.62,5.77,4.78.12.11.23.17.37.13.13-.04.18-.15.18-.35V1.92C65.88.69,65.17,0,63.95,0h-7.25v3.45h2.96c1.08,0,1.52.61,1.52,1.52v9.79c-2.61-2.64-5.49-3.23-7.74-3.23ZM78.12,15.82v-1.99c0-1.23-.72-1.92-1.93-1.92h-7.25v3.45h3.07c1.08,0,1.53.61,1.53,1.52v8.69c0,.2.04.31.18.35.14.04.26,0,.37-.13,1.03-1.08,3.43-3.65,4.99-5.17,3.54-3.44,6.35-4.89,8.8-4.89v-4.21c-3.11,0-4.17.46-6.01,1.44-1.35.72-2.9,2.01-3.74,2.86Z"/>
  </g>
</svg>
