<?xml version="1.0" encoding="UTF-8" standalone="no"?>
<!-- Created with Inkscape (http://www.inkscape.org/) -->
<svg width="1000" height="248.45364" viewBox="0 0 264.58333 65.736692" version="1.1" id="svg1" sodipodi:docname="ARD Mittagsmagazin 2024.svg" inkscape:version="1.3 (0e150ed6c4, 2023-07-21)" xml:space="preserve" xmlns:inkscape="http://www.inkscape.org/namespaces/inkscape" xmlns:sodipodi="http://sodipodi.sourceforge.net/DTD/sodipodi-0.dtd" xmlns="http://www.w3.org/2000/svg" xmlns:svg="http://www.w3.org/2000/svg"><sodipodi:namedview id="namedview1" pagecolor="#ffffff" bordercolor="#000000" borderopacity="0.25" inkscape:showpageshadow="2" inkscape:pageopacity="0.0" inkscape:pagecheckerboard="0" inkscape:deskcolor="#d1d1d1" inkscape:document-units="mm" inkscape:zoom="0.60742421" inkscape:cx="808.33129" inkscape:cy="-38.687954" inkscape:window-width="1920" inkscape:window-height="1017" inkscape:window-x="-8" inkscape:window-y="-8" inkscape:window-maximized="1" inkscape:current-layer="layer1" showguides="true"/><defs id="defs1"><clipPath clipPathUnits="userSpaceOnUse" id="clipPath985"><path d="M 204.24527,510.77063 H 323.10196 V 629.62732 H 204.24527 Z" clip-rule="evenodd" id="path983"/></clipPath></defs><g inkscape:label="Ebene 1" inkscape:groupmode="layer" id="layer1" transform="translate(0,-29.265786)"><path id="path4" style="font-weight:800;font-size:67.4909px;font-family:'TheSans Trial';-inkscape-font-specification:'TheSans Trial Ultra-Bold';letter-spacing:-0.650875px;word-spacing:0px;opacity:1;fill:#000000;fill-rule:evenodd;stroke-width:0" d="M 6.4325204,38.657788 0,94.948098 H 12.346268 L 16.29431,53.76871 28.904122,94.948098 H 41.118619 L 54.11671,53.76871 58.027013,94.948098 H 71.163912 L 64.647595,38.657788 H 46.5814 L 35.502317,74.838156 24.272273,38.657788 Z m 67.6028706,0 3.378096,28.145474 0.844365,7.035729 0.845003,7.036369 0.844364,7.036368 c 0,0 0.20437,3.837979 1.297251,5.297107 1.189749,1.194369 2.699352,1.739263 4.328647,1.739263 h 1.705999 6.486892 l -6.874532,-56.29031 z m 33.184149,0 -6.43252,56.29031 h 12.34627 l 3.94805,-41.179388 12.6098,41.179388 h 12.2145 l 12.99809,-41.179388 3.9103,41.179388 h 13.13691 l -6.51632,-56.29031 H 147.36843 L 136.28934,74.838156 125.05929,38.657788 Z m 86.20767,0.05374 -17.96129,56.236577 h 12.94884 l 3.85145,-13.421553 h 15.82736 c 0,0 1.5091,5.202863 1.44693,5.220346 0.84769,2.713378 1.61815,5.32342 3.00517,6.475378 1.5191,1.261672 4.47796,1.726119 7.23338,1.780201 l 5.07194,-0.05438 -18.05724,-56.236578 z m 6.63018,16.813723 c 0.42604,0.697147 4.96063,15.654001 4.96063,15.654001 l -10.65241,3.737591 z"/><g id="g530" inkscape:label="Dachmarke" transform="matrix(0.03946264,0,0,0.03946264,225.12068,29.265788)" style="opacity:1;fill:#000000"><path d="m 2643.23,1795.2 v 267.82 l -268.84,-96.7 v -66.83 l 89.11,32.41 v -201 l 179.73,64.3" style="fill:#000000;fill-opacity:1;fill-rule:nonzero;stroke:none" id="path20" transform="matrix(1.5332252,0,0,-1.5332252,-3391.4327,3402.15)" inkscape:label="1"/><path d="m 2538.07,2218.95 c -180.1,0 -326.11,-146 -326.11,-326.11 0,-180.1 146.01,-326.11 326.11,-326.11 180.11,0 326.11,146.01 326.11,326.11 0,180.11 -146,326.11 -326.11,326.11 z m 0,-593.58 c -147.72,0 -267.47,119.76 -267.47,267.47 0,147.72 119.75,267.47 267.47,267.47 147.72,0 267.47,-119.75 267.47,-267.47 0,-147.71 -119.75,-267.47 -267.47,-267.47" style="fill:#000000;fill-opacity:1;fill-rule:nonzero;stroke:none" id="path18" inkscape:label="Circle" transform="matrix(1.5332252,0,0,-1.5332252,-3391.4327,3402.15)"/></g></g></svg>